<?xml version="1.0" encoding="utf-8"?>
<!-- Generator: Adobe Illustrator 23.0.3, SVG Export Plug-In . SVG Version: 6.00 Build 0)  -->
<svg version="1.1" id="Layer_1" xmlns="http://www.w3.org/2000/svg" xmlns:xlink="http://www.w3.org/1999/xlink" x="0px" y="0px"
	 viewBox="0 0 465 341.7" style="enable-background:new 0 0 465 341.7;" xml:space="preserve">
<style type="text/css">
	.st0{display:none;}
	.st1{display:inline;}
	.st2{fill-rule:evenodd;clip-rule:evenodd;fill:#006400;}
	.st3{clip-path:url(#SVGID_2_);}
	.st4{clip-path:url(#SVGID_4_);fill:#006400;}
	.st5{clip-path:url(#SVGID_4_);}
	.st6{clip-path:url(#SVGID_6_);fill:#FFFFFF;}
	.st7{opacity:0.17;clip-path:url(#SVGID_6_);enable-background:new    ;}
	.st8{clip-path:url(#SVGID_8_);fill:#FFFFFF;}
	.st9{clip-path:url(#SVGID_10_);fill:#FFFFFF;}
	.st10{clip-path:url(#SVGID_12_);fill:#FFFFFF;}
	.st11{clip-path:url(#SVGID_14_);fill:#FFFFFF;}
	.st12{clip-path:url(#SVGID_6_);}
	.st13{clip-path:url(#SVGID_16_);}
	.st14{clip-path:url(#SVGID_18_);fill:#006400;}
	.st15{fill:#5F6062;}
	.st16{font-family:'ArialMT';}
	.st17{font-size:12px;}
	.st18{clip-path:url(#SVGID_20_);enable-background:new    ;}
	.st19{clip-path:url(#SVGID_24_);enable-background:new    ;}
	.st20{clip-path:url(#SVGID_26_);}
	.st21{clip-path:url(#SVGID_28_);}
	.st22{fill:#FFFFFF;}
	.st23{clip-path:url(#SVGID_24_);fill:#006400;}
	.st24{clip-path:url(#SVGID_24_);fill:#FFFFFF;}
	.st25{clip-path:url(#SVGID_24_);fill:#67AD21;}
	.st26{clip-path:url(#SVGID_24_);fill:#2B414F;}
	.st27{clip-path:url(#SVGID_24_);fill:#F0AD4E;}
	.st28{clip-path:url(#SVGID_24_);fill:#D9534F;}
	.st29{display:inline;fill-rule:evenodd;clip-rule:evenodd;fill:#006400;}
	.st30{fill-rule:evenodd;clip-rule:evenodd;fill:#FFFFFF;}
	.st31{display:none;fill-rule:evenodd;clip-rule:evenodd;fill:#FFFFFF;}
	.st32{fill:#FA683F;stroke:#FA683F;stroke-width:9.375000e-02;}
	.st33{display:none;fill-rule:evenodd;clip-rule:evenodd;fill:#006400;}
</style>
<title>Group</title>
<desc>Created with Sketch.</desc>
<g id="Page-1" class="st0">
	<g id="Group" class="st1">
		<path id="path29" class="st2" d="M0.7,134.2c0-47.1,16.7-89.2,50.3-126.6C63.2-5.7,73.3-12.7,80.2-12.7c2.3,0,4.6,0.7,6.8,2.2
			c1.5,1.5,3,3.7,3,5.9c0,3.7-4.6,8.9-12.9,17.3C42,45.8,24.3,86.2,24.3,135c0,54,18.5,97.4,54.4,131.1c7.6,6.7,10.6,11.9,10.6,16.4
			c0,2.2-1.5,4.5-3,6.7c-1.5,1.5-4.6,3-6.8,3c-8.3,0-20-9.7-35.2-28.5C14.6,227.9,0.7,185.3,0.7,134.2L0.7,134.2L0.7,134.2z"/>
		<path id="path31" class="st2" d="M464.1,146.1c0,47.1-16.7,89.2-50.3,126.6c-12.1,13.4-22.3,20.3-29.1,20.3
			c-2.3,0-4.6-0.7-6.8-2.2c-1.5-1.5-3-4.5-3-6.7c0-3.7,4.6-8.9,12.9-16.4c35.2-32.9,52.9-73.3,52.9-122.1c0-54-18.5-97.4-54.4-131.1
			c-7.6-6.7-10.6-11.9-10.6-16.4c0-2.2,1.5-4.5,3-6.7c1.5-1.5,4.6-3,6.8-3c7.6,0,20,9.7,35.2,28.5
			C448.7,52.7,464.1,95.4,464.1,146.1L464.1,146.1L464.1,146.1z"/>
		<g id="g33" transform="translate(107.580239, 265.729742)">
			<path id="path37" class="st2" d="M231,17H19C11.4,17,5.7,11.4,5.7,4S11.4-9,19-9h212c7.6,0,13.3,5.6,13.3,13
				C242.4,11.4,238.6,17,231,17L231,17z"/>
		</g>
		<path id="Shape" class="st2" d="M187.4,12.9c0,0,17.7,11.9,17.7,33.7C205.1,84,153,125.1,153,164c0,41.9,32.9,68.9,64.2,77
			c4.6,0.7,6.1-3.7,0.8-5.2c-12.9-3-26.8-19.6-26.8-44.8c0-24,23.8-32.9,32.9-44.1c9.9-11.9,7.6-27,1.5-31.5
			c-6.1-4.5-1.5-10.4,8.3-3c9.9,6.7,18.5,20.3,15.2,32.2c-3.8,15.6,1.5,24.8,9.9,26.3c8.3,1.5,17.7-3,16.7-10.4s-5.3-15.6-3-15.6
			c6.1,0,18.5,14.1,18.5,37.4s-19.2,38.9-25.3,44.8c-3.8,3.7,0.8,8.2,6.1,5.9c2.3-0.7,7.6-3.7,10.6-5.9c15.2-10.4,39-32.2,39-71.8
			c0-41.9-15.9-60.7-32.9-76.3c-16.7-15.6-20.7-11.9-15.9-3.7c13.7,23.3,5.3,31.5-4.6,31.5c-12.1,0-12.1-26.3-17.7-46.3
			c-9.9-44.8-52.1-52.5-59.7-53.3C185.1,4.7,178,9.1,187.4,12.9L187.4,12.9z"/>
	</g>
</g>
<g class="st0">
	<g class="st1">
		<defs>
			<rect id="SVGID_1_" x="-77" y="307.9" width="598.5" height="467.3"/>
		</defs>
		<clipPath id="SVGID_2_">
			<use xlink:href="#SVGID_1_"  style="overflow:visible;"/>
		</clipPath>
		<g class="st3">
			<defs>
				<rect id="SVGID_3_" x="-77" y="307.9" width="598.5" height="467.3"/>
			</defs>
			<clipPath id="SVGID_4_">
				<use xlink:href="#SVGID_3_"  style="overflow:visible;"/>
			</clipPath>
			<rect x="266.2" y="326.3" class="st4" width="89.9" height="25.2"/>
			<rect x="-50.5" y="387.2" class="st4" width="406.4" height="80.1"/>
			<g class="st5">
				<defs>
					<rect id="SVGID_5_" x="-77" y="307.9" width="598.5" height="467.3"/>
				</defs>
				<clipPath id="SVGID_6_">
					<use xlink:href="#SVGID_5_"  style="overflow:visible;"/>
				</clipPath>
				<path class="st6" d="M-25.5,423.3h-3.2c-1.1,0-1.7-0.5-1.7-1.4c0-1,0.6-1.4,1.7-1.4h3.2v-2.8c0-4.9,2.5-7.3,7.4-7.3
					c2,0,3.7,0.4,5,1.1c1.7,1,2.6,2.6,2.6,4.5c0,1.3-0.5,1.8-1.4,1.8c-0.6,0-1.2-0.4-1.5-1.1c-0.4-1.3-0.8-2-1-2.3
					c-0.6-0.7-1.8-1.1-3.5-1.1c-3,0-4.5,1.5-4.5,4.5v2.7h5.8c1.3,0,1.9,0.5,1.9,1.4c0,1-0.6,1.4-1.9,1.4h-5.8v18.3
					c0,1.1-0.5,1.7-1.4,1.7c-1,0-1.4-0.6-1.4-1.7v-18.3H-25.5z"/>
				<path class="st6" d="M0.5,440v-16.7h-4.3c-1.2,0-1.8-0.5-1.8-1.4c0-1,0.6-1.4,1.8-1.4H2c1,0,1.5,0.9,1.5,2.5
					c1.8-1.9,3.7-3,5.7-3c1.7,0,3,0.5,3.9,1.5c1,1,1.4,2.4,1.4,4c0,1.1-0.5,1.7-1.4,1.7c-0.6,0-1-0.4-1.2-1.1
					c-0.4-1.4-0.6-2.1-0.7-2.2c-0.4-0.7-1.2-1.1-2.2-1.1c-1.1,0-2.2,0.4-3.1,1.2c-0.6,0.4-1.4,1.3-2.4,2.6V440h5.4
					c1.2,0,1.8,0.5,1.8,1.4c0,1-0.6,1.5-1.8,1.5H-3.9c-1.2,0-1.8-0.5-1.8-1.4c0-1,0.6-1.4,1.8-1.4h4.4V440z"/>
				<path class="st6" d="M22.4,432.1v3.2c0,3.4,2.4,5.1,7.3,5.1c1.8,0,3.2-0.2,4.3-0.6c0.6-0.2,1.6-0.7,3-1.7
					c0.9-0.8,1.5-1.2,1.8-1.2c0.8,0,1.2,0.4,1.2,1.3c0,0.9-0.6,1.8-1.8,2.7c-1.9,1.5-4.8,2.3-8.6,2.3c-6.7,0-10.1-2.6-10.1-7.9v-8
					c0-1.8,0.7-3.4,2.1-4.7c1.8-1.8,4.6-2.6,8.2-2.6c6.6,0,9.8,3.3,9.8,9.8c0,1.6-0.6,2.4-1.8,2.4H22.4V432.1z M22.4,429.3h14.3
					c0-4.3-2.4-6.5-7.3-6.5c-1.8,0-3.4,0.4-4.8,1.2c-1.4,1-2.2,2.2-2.2,3.6V429.3z"/>
				<path class="st6" d="M47.5,432.1v3.2c0,3.4,2.4,5.1,7.3,5.1c1.8,0,3.2-0.2,4.3-0.6c0.6-0.2,1.6-0.7,3-1.7
					c0.9-0.8,1.5-1.2,1.8-1.2c0.8,0,1.2,0.4,1.2,1.3c0,0.9-0.6,1.8-1.8,2.7c-1.9,1.5-4.8,2.3-8.6,2.3c-6.7,0-10.1-2.6-10.1-7.9v-8
					c0-1.8,0.7-3.4,2.1-4.7c1.8-1.8,4.6-2.6,8.2-2.6c6.6,0,9.8,3.3,9.8,9.8c0,1.6-0.6,2.4-1.8,2.4H47.5V432.1z M47.5,429.3h14.3
					c0-4.3-2.4-6.5-7.3-6.5c-1.8,0-3.4,0.4-4.8,1.2c-1.5,1-2.2,2.2-2.2,3.6V429.3z"/>
				<path class="st6" d="M70,434v-12.5c0-6.6,3.4-9.8,10.4-9.8c2.8,0,5,0.6,6.8,1.8c2,1.5,3,3.6,3,6.2c0,1.2-0.5,1.8-1.5,1.8
					c-0.7,0-1.2-0.6-1.5-1.8c-0.2-1-0.6-1.9-1.1-2.8c-0.9-1.6-2.8-2.3-5.8-2.3c-2.6,0-4.4,0.6-5.5,1.9c-1,1.2-1.6,3-1.6,5.7v10.4
					c0,2.7,0.6,4.6,1.7,5.8c1.2,1.3,3,2,5.6,2c3.9,0,6.2-1.4,6.7-4.1c0.2-1,0.3-1.5,0.3-1.6c0.2-0.6,0.6-0.9,1.2-0.9
					c1,0,1.5,0.6,1.5,1.8c0,2.5-1,4.4-3.1,5.9c-1.7,1.1-3.8,1.7-6.6,1.7c-3.2,0-5.7-0.7-7.5-2.2C70.9,439.5,70,437.1,70,434"/>
				<path class="st6" d="M94.8,435.7v-8.2c0-5,3.4-7.5,10.1-7.5s10.1,2.5,10.1,7.5v8.2c0,5-3.3,7.5-9.9,7.5
					C98.1,443.3,94.8,440.8,94.8,435.7 M112,435.7v-8.2c0-3.1-2.4-4.7-7.3-4.7c-4.6,0-7,1.6-7,4.7v8.2c0,3.1,2.4,4.7,7.2,4.6
					C109.6,440.4,112,438.9,112,435.7"/>
				<g class="st7">
					<g>
						<defs>
							<rect id="SVGID_7_" x="70" y="388.5" width="20.2" height="23.2"/>
						</defs>
						<clipPath id="SVGID_8_">
							<use xlink:href="#SVGID_7_"  style="overflow:visible;"/>
						</clipPath>
						<path class="st8" d="M70,404.2V396c0-5,3.4-7.5,10.1-7.5s10.1,2.5,10.1,7.5v8.2c0,5-3.3,7.5-9.9,7.5
							C73.3,411.7,70,409.3,70,404.2 M87.2,404.2V396c0-3.1-2.4-4.7-7.3-4.7c-4.6,0-7,1.6-7,4.7v8.2c0,3.1,2.4,4.7,7.2,4.6
							C84.8,408.9,87.2,407.3,87.2,404.2"/>
					</g>
				</g>
				<g class="st7">
					<g>
						<defs>
							<rect id="SVGID_9_" x="70" y="444.1" width="20.2" height="23.2"/>
						</defs>
						<clipPath id="SVGID_10_">
							<use xlink:href="#SVGID_9_"  style="overflow:visible;"/>
						</clipPath>
						<path class="st9" d="M70,459.8v-8.2c0-5,3.4-7.5,10.1-7.5s10.1,2.5,10.1,7.5v8.2c0,5-3.3,7.5-9.9,7.5
							C73.3,467.3,70,464.8,70,459.8 M87.2,459.8v-8.2c0-3.1-2.4-4.7-7.3-4.7c-4.6,0-7,1.6-7,4.7v8.2c0,3.1,2.4,4.7,7.2,4.6
							C84.8,464.4,87.2,462.9,87.2,459.8"/>
					</g>
				</g>
				<g class="st7">
					<g>
						<defs>
							<rect id="SVGID_11_" x="-50.5" y="413" width="20.2" height="23.2"/>
						</defs>
						<clipPath id="SVGID_12_">
							<use xlink:href="#SVGID_11_"  style="overflow:visible;"/>
						</clipPath>
						<path class="st10" d="M-50.5,428.7v-8.2c0-5,3.4-7.5,10.1-7.5s10.1,2.5,10.1,7.5v8.2c0,5-3.3,7.5-9.9,7.5
							C-47.1,436.2-50.5,433.7-50.5,428.7 M-33.3,428.7v-8.2c0-3.1-2.4-4.7-7.3-4.7c-4.6,0-7,1.6-7,4.7v8.2c0,3.1,2.4,4.7,7.2,4.6
							C-35.6,433.3-33.3,431.8-33.3,428.7"/>
					</g>
				</g>
				<g class="st7">
					<g>
						<defs>
							<rect id="SVGID_13_" x="335.8" y="418.8" width="20.2" height="23.2"/>
						</defs>
						<clipPath id="SVGID_14_">
							<use xlink:href="#SVGID_13_"  style="overflow:visible;"/>
						</clipPath>
						<path class="st11" d="M335.8,434.5v-8.2c0-5,3.4-7.5,10.1-7.5c6.7,0,10.1,2.5,10.1,7.5v8.2c0,5-3.3,7.5-9.9,7.5
							C339.1,442.1,335.8,439.6,335.8,434.5 M353,434.5v-8.2c0-3.1-2.4-4.7-7.3-4.7c-4.6,0-7,1.6-7,4.7v8.2c0,3.1,2.4,4.7,7.2,4.6
							C350.6,439.2,353,437.7,353,434.5"/>
					</g>
				</g>
				<path class="st6" d="M136.9,440.5c-1.4,1-2.6,1.7-3.6,2.1c-1.1,0.4-2.5,0.6-4.1,0.6c-2.7,0-4.9-0.6-6.6-1.7
					c-1.9-1.3-2.9-3.2-2.9-5.8v-8.4c0-2.5,1-4.4,2.8-5.7c1.6-1.1,3.8-1.7,6.3-1.7c1.7,0,3.1,0.2,4.2,0.6c1.1,0.4,2.3,1.1,3.6,2.2
					v-10.3c0-1.4,0.5-2.1,1.4-2.1c1,0,1.5,0.7,1.5,2.1v29.4c0,1-0.5,1.5-1.4,1.5c-0.6,0-1-0.3-1.1-1
					C137,441.8,136.9,441.3,136.9,440.5 M136.8,437.2v-11.5c-1.4-1-2.6-1.8-3.4-2.1c-1.2-0.5-2.5-0.7-3.9-0.7c-1.8,0-3.4,0.3-4.5,1
					c-1.4,0.9-2.2,2.2-2.2,3.8v7.9c0,1.7,0.7,3,2.2,3.8c1.2,0.6,2.7,1,4.6,1c1.5,0,2.9-0.2,4-0.7
					C134.5,439.1,135.6,438.3,136.8,437.2"/>
				<path class="st6" d="M147.8,432.1v3.2c0,3.4,2.4,5.1,7.3,5.1c1.8,0,3.2-0.2,4.3-0.6c0.6-0.2,1.6-0.7,3-1.7
					c0.9-0.8,1.5-1.2,1.8-1.2c0.8,0,1.2,0.4,1.2,1.3c0,0.9-0.6,1.8-1.8,2.7c-1.9,1.5-4.8,2.3-8.6,2.3c-6.7,0-10.1-2.6-10.1-7.9v-8
					c0-1.8,0.7-3.4,2.1-4.7c1.8-1.8,4.6-2.6,8.2-2.6c6.6,0,9.8,3.3,9.8,9.8c0,1.6-0.6,2.4-1.8,2.4h-15.4V432.1z M147.8,429.3h14.3
					c0-4.3-2.4-6.5-7.3-6.5c-1.8,0-3.4,0.4-4.8,1.2c-1.5,1-2.2,2.2-2.2,3.6V429.3z"/>
				<path class="st6" d="M170.3,434v-12.5c0-6.6,3.4-9.8,10.4-9.8c2.8,0,5,0.6,6.8,1.8c2,1.5,3,3.6,3,6.2c0,1.2-0.5,1.8-1.5,1.8
					c-0.7,0-1.2-0.6-1.5-1.8c-0.2-1-0.6-1.9-1.1-2.8c-0.9-1.6-2.8-2.3-5.8-2.3c-2.6,0-4.4,0.6-5.5,1.9c-1,1.2-1.6,3-1.6,5.7v10.4
					c0,2.7,0.6,4.6,1.7,5.8c1.2,1.3,3,2,5.6,2c3.9,0,6.2-1.4,6.7-4.1c0.2-1,0.3-1.5,0.3-1.6c0.2-0.6,0.6-0.9,1.2-0.9
					c1,0,1.5,0.6,1.5,1.8c0,2.5-1,4.4-3.1,5.9c-1.7,1.1-3.8,1.7-6.6,1.7c-3.2,0-5.7-0.7-7.5-2.2C171.3,439.5,170.3,437.1,170.3,434"
					/>
				<path class="st6" d="M211.2,440.5c-1.4,1-2.6,1.8-3.4,2.1c-1,0.4-2.3,0.6-3.9,0.6c-2.4,0-4.4-0.5-5.9-1.5
					c-1.8-1.2-2.7-3-2.7-5.3c0-2.3,1-4.2,2.8-5.4c1.6-1.2,3.7-1.8,6.1-1.8c2,0,4.2,0.5,6.8,1.4v-3.5c0-1.7-0.8-2.9-2.4-3.6
					c-1.1-0.5-2.5-0.7-4.1-0.7c-3.8,0-5.8,1-6.2,3.1c-0.2,1-0.3,1.4-0.3,1.5c-0.2,0.5-0.6,0.7-1.2,0.7c-1,0-1.6-0.6-1.6-1.7
					c0-1.5,0.6-2.9,1.8-4.2c1.4-1.6,4.1-2.4,7.8-2.4c3,0,5.1,0.5,6.6,1.4c1.7,1.2,2.6,3.2,2.6,6v10.2c0,1.2,0.2,2,0.7,2.4
					c0.1,0.1,0.6,0.3,1.4,0.6c0.5,0.2,0.7,0.6,0.7,1.4c0,0.8-0.4,1.2-1.3,1.2c-0.2,0-0.6-0.1-1.3-0.3c-1.1-0.4-1.8-0.6-2-0.7
					C211.7,441.9,211.4,441.3,211.2,440.5 M211.1,437.5v-4.2c-2.2-0.7-4.4-1.1-6.3-1.1c-4.3,0-6.5,1.4-6.5,4.2
					c0,1.4,0.6,2.6,1.9,3.2c1,0.6,2.3,0.9,3.9,0.9c1.4,0,2.6-0.2,3.8-0.8C208.7,439.3,209.8,438.5,211.1,437.5"/>
				<path class="st6" d="M222.4,422.4c0.7-0.9,1.4-1.5,1.8-1.8c0.6-0.4,1.4-0.6,2.5-0.6c1.6,0,3,0.8,4.2,2.5c0.8-1,1.5-1.6,2.2-1.9
					c0.7-0.4,1.7-0.6,2.8-0.6c3.4,0,5.2,1.7,5.2,5v16.2c0,1.4-0.5,2-1.5,2s-1.4-0.6-1.4-2V426c0-2.1-0.9-3.2-2.6-3.2
					c-1.3,0-2.6,0.8-3.7,2.3v16.2c0,1.4-0.5,2-1.4,2c-0.9,0-1.4-0.6-1.4-2v-15c0-2.3-1-3.4-2.8-3.4c-1.2,0-2.3,0.8-3.5,2.3v16.1
					c0,1.4-0.5,2-1.5,2s-1.4-0.6-1.4-2v-19.9c0-1,0.4-1.4,1.2-1.4c0.4,0,0.8,0.3,1,0.9C222.3,421.3,222.4,421.8,222.4,422.4"/>
				<path class="st6" d="M248.4,422.4c2.2-1.6,4.9-2.4,7.8-2.4c6.1,0,9.1,2.6,9.1,7.6v8.3c0,2.4-0.9,4.2-2.6,5.6
					c-1.5,1.2-3.6,1.8-6.2,1.8c-3.1,0-5.8-0.8-8.1-2.5v9.4c0,1.4-0.5,2.2-1.4,2.2c-0.9,0-1.4-0.7-1.4-2.2v-28.1
					c0-1.4,0.4-2.2,1.2-2.2c0.4,0,0.8,0.3,1.1,0.9C248,421.3,248.3,421.9,248.4,422.4 M248.4,437.6c2.1,1.8,4.6,2.8,7.6,2.8
					c1.8,0,3.3-0.3,4.4-1c1.4-0.8,2-2,2-3.5v-8.3c0-1.8-0.7-3-2.2-3.8c-1.1-0.6-2.6-0.9-4.5-0.9c-1.7,0-3,0.2-4.1,0.7
					c-1,0.4-2,1.3-3.3,2.6v11.4H248.4z"/>
				<path class="st6" d="M275.2,429.7c0-6.3,2.2-11.9,6.6-16.9c1.6-1.8,2.9-2.7,3.8-2.7c0.3,0,0.6,0.1,0.9,0.3
					c0.2,0.2,0.4,0.5,0.4,0.8c0,0.5-0.6,1.2-1.7,2.3c-4.6,4.4-6.9,9.8-6.9,16.3c0,7.2,2.4,13,7.1,17.5c1,0.9,1.4,1.6,1.4,2.2
					c0,0.3-0.2,0.6-0.4,0.9c-0.2,0.2-0.6,0.4-0.9,0.4c-1.1,0-2.6-1.3-4.6-3.8C277,442.2,275.2,436.5,275.2,429.7"/>
				<path class="st6" d="M335.8,431.3c0,6.3-2.2,11.9-6.6,16.9c-1.6,1.8-2.9,2.7-3.8,2.7c-0.3,0-0.6-0.1-0.9-0.3
					c-0.2-0.2-0.4-0.6-0.4-0.9c0-0.5,0.6-1.2,1.7-2.2c4.6-4.4,6.9-9.8,6.9-16.3c0-7.2-2.4-13-7.1-17.5c-1-0.9-1.4-1.6-1.4-2.2
					c0-0.3,0.2-0.6,0.4-0.9c0.2-0.2,0.6-0.4,0.9-0.4c1,0,2.6,1.3,4.6,3.8C333.8,418.8,335.8,424.5,335.8,431.3"/>
				<path class="st6" d="M319.4,449.6h-27.8c-1,0-1.8-0.8-1.8-1.8c0-1,0.8-1.8,1.8-1.8h27.8c1,0,1.8,0.8,1.8,1.8
					C320.9,448.8,320.4,449.6,319.4,449.6"/>
				<path class="st6" d="M299.6,413.5c0,0,2.3,1.6,2.3,4.5c0,5-6.8,10.5-6.8,15.7c0,5.6,4.3,9.2,8.4,10.3c0.6,0.1,0.8-0.5,0.1-0.7
					c-1.7-0.4-3.5-2.6-3.5-6c0-3.2,3.1-4.4,4.3-5.9c1.3-1.6,1-3.6,0.2-4.2c-0.8-0.6-0.2-1.4,1.1-0.4c1.3,0.9,2.4,2.7,2,4.3
					c-0.5,2.1,0.2,3.3,1.3,3.5c1.1,0.2,2.3-0.4,2.2-1.4c-0.1-1-0.7-2.1-0.4-2.1c0.8,0,2.4,1.9,2.4,5s-2.5,5.2-3.3,6
					c-0.5,0.5,0.1,1.1,0.8,0.8c0.3-0.1,1-0.5,1.4-0.8c2-1.4,5.1-4.3,5.1-9.6c0-5.6-2.1-8.1-4.3-10.2c-2.2-2.1-2.7-1.6-2.1-0.5
					c1.8,3.1,0.7,4.2-0.6,4.2c-1.6,0-1.6-3.5-2.3-6.2c-1.3-6-6.8-7-7.8-7.1S298.4,413,299.6,413.5"/>
				<g class="st12">
					<defs>
						<rect id="SVGID_15_" x="-54.6" y="487.4" width="414.6" height="89.7"/>
					</defs>
					<clipPath id="SVGID_16_">
						<use xlink:href="#SVGID_15_"  style="overflow:visible;"/>
					</clipPath>
					<g class="st13">
						<defs>
							<rect id="SVGID_17_" x="-54.6" y="487.4" width="414.6" height="89.7"/>
						</defs>
						<clipPath id="SVGID_18_">
							<use xlink:href="#SVGID_17_"  style="overflow:visible;"/>
						</clipPath>
						<rect x="-54.6" y="487.4" class="st14" width="414.6" height="89.7"/>
					</g>
				</g>
				<path class="st6" d="M-25.5,528.2h-3.2c-1.1,0-1.7-0.5-1.7-1.4c0-0.9,0.6-1.4,1.7-1.4h3.2v-2.8c0-4.9,2.5-7.3,7.4-7.3
					c2,0,3.7,0.4,5,1.1c1.7,1,2.6,2.6,2.6,4.5c0,1.3-0.5,1.8-1.4,1.8c-0.6,0-1.2-0.4-1.5-1.1c-0.4-1.3-0.8-2-1-2.3
					c-0.6-0.7-1.8-1.1-3.5-1.1c-3,0-4.5,1.5-4.5,4.5v2.7h5.8c1.3,0,1.9,0.5,1.9,1.4c0,1-0.6,1.4-1.9,1.4h-5.8v18.3
					c0,1.1-0.5,1.7-1.4,1.7c-1,0-1.4-0.6-1.4-1.7v-18.3H-25.5z"/>
				<path class="st6" d="M0.5,544.9v-16.7h-4.3c-1.2,0-1.8-0.5-1.8-1.4c0-0.9,0.6-1.4,1.8-1.4H2c1,0,1.5,0.9,1.5,2.5
					c1.8-1.9,3.7-3,5.7-3c1.7,0,3,0.5,3.9,1.5c1,1,1.4,2.4,1.4,4c0,1.1-0.5,1.7-1.4,1.7c-0.6,0-1-0.4-1.2-1.1
					c-0.4-1.4-0.6-2.1-0.7-2.2c-0.4-0.7-1.2-1.1-2.2-1.1c-1.1,0-2.2,0.4-3.1,1.2c-0.6,0.4-1.4,1.3-2.4,2.6v13.4h5.4
					c1.2,0,1.8,0.5,1.8,1.4c0,1-0.6,1.5-1.8,1.5H-3.9c-1.2,0-1.8-0.5-1.8-1.4c0-1,0.6-1.4,1.8-1.4L0.5,544.9L0.5,544.9z"/>
				<path class="st6" d="M22.4,537.1v3.2c0,3.4,2.4,5.1,7.3,5.1c1.8,0,3.2-0.2,4.3-0.6c0.6-0.2,1.6-0.7,3-1.7
					c0.9-0.8,1.5-1.2,1.8-1.2c0.8,0,1.2,0.4,1.2,1.3s-0.6,1.8-1.8,2.7c-1.9,1.5-4.8,2.3-8.6,2.3c-6.7,0-10.1-2.6-10.1-7.9v-8
					c0-1.8,0.7-3.4,2.1-4.7c1.8-1.8,4.6-2.6,8.2-2.6c6.6,0,9.8,3.3,9.8,9.8c0,1.6-0.6,2.4-1.8,2.4L22.4,537.1L22.4,537.1z
					 M22.4,534.2h14.3c0-4.3-2.4-6.5-7.3-6.5c-1.8,0-3.4,0.4-4.8,1.2c-1.4,1-2.2,2.2-2.2,3.6V534.2z"/>
				<path class="st6" d="M47.5,537.1v3.2c0,3.4,2.4,5.1,7.3,5.1c1.8,0,3.2-0.2,4.3-0.6c0.6-0.2,1.6-0.7,3-1.7
					c0.9-0.8,1.5-1.2,1.8-1.2c0.8,0,1.2,0.4,1.2,1.3s-0.6,1.8-1.8,2.7c-1.9,1.5-4.8,2.3-8.6,2.3c-6.7,0-10.1-2.6-10.1-7.9v-8
					c0-1.8,0.7-3.4,2.1-4.7c1.8-1.8,4.6-2.6,8.2-2.6c6.6,0,9.8,3.3,9.8,9.8c0,1.6-0.6,2.4-1.8,2.4L47.5,537.1L47.5,537.1z
					 M47.5,534.2h14.3c0-4.3-2.4-6.5-7.3-6.5c-1.8,0-3.4,0.4-4.8,1.2c-1.5,1-2.2,2.2-2.2,3.6V534.2z"/>
				<path class="st6" d="M70,538.9v-12.5c0-6.6,3.4-9.8,10.4-9.8c2.8,0,5,0.6,6.8,1.8c2,1.5,3,3.6,3,6.2c0,1.2-0.5,1.8-1.5,1.8
					c-0.7,0-1.2-0.6-1.5-1.8c-0.2-1-0.6-1.9-1.1-2.8c-0.9-1.6-2.8-2.3-5.8-2.3c-2.6,0-4.4,0.6-5.5,1.9c-1,1.2-1.6,3-1.6,5.7v10.4
					c0,2.7,0.6,4.6,1.7,5.8c1.2,1.3,3,2,5.6,2c3.9,0,6.2-1.4,6.7-4.1c0.2-1,0.3-1.5,0.3-1.6c0.2-0.6,0.6-0.9,1.2-0.9
					c1,0,1.5,0.6,1.5,1.8c0,2.5-1,4.4-3.1,5.9c-1.7,1.1-3.8,1.7-6.6,1.7c-3.2,0-5.7-0.7-7.5-2.2C70.9,544.5,70,542.1,70,538.9"/>
				<path class="st6" d="M94.8,540.7v-8.2c0-5,3.4-7.5,10.1-7.5s10.1,2.5,10.1,7.5v8.2c0,5-3.3,7.5-9.9,7.5
					C98.1,548.2,94.8,545.7,94.8,540.7 M112,540.7v-8.2c0-3.1-2.4-4.7-7.3-4.7c-4.6,0-7,1.6-7,4.7v8.2c0,3.1,2.4,4.7,7.2,4.6
					C109.6,545.3,112,543.8,112,540.7"/>
				<path class="st6" d="M136.9,545.5c-1.4,1-2.6,1.7-3.6,2.1c-1.1,0.4-2.5,0.6-4.1,0.6c-2.7,0-4.9-0.6-6.6-1.7
					c-1.9-1.3-2.9-3.2-2.9-5.8v-8.4c0-2.5,1-4.4,2.8-5.7c1.6-1.1,3.8-1.7,6.3-1.7c1.7,0,3.1,0.2,4.2,0.6c1.1,0.4,2.3,1.1,3.6,2.2
					v-10.3c0-1.4,0.5-2.1,1.4-2.1c1,0,1.5,0.7,1.5,2.1v29.4c0,1-0.5,1.5-1.4,1.5c-0.6,0-1-0.3-1.1-1
					C137,546.8,136.9,546.2,136.9,545.5 M136.8,542.1v-11.5c-1.4-1-2.6-1.8-3.4-2.1c-1.2-0.5-2.5-0.7-3.9-0.7c-1.8,0-3.4,0.3-4.5,1
					c-1.4,0.9-2.2,2.2-2.2,3.8v7.9c0,1.7,0.7,3,2.2,3.8c1.2,0.6,2.7,1,4.6,1c1.5,0,2.9-0.2,4-0.7
					C134.5,544.1,135.6,543.3,136.8,542.1"/>
				<path class="st6" d="M147.8,537.1v3.2c0,3.4,2.4,5.1,7.3,5.1c1.8,0,3.2-0.2,4.3-0.6c0.6-0.2,1.6-0.7,3-1.7
					c0.9-0.8,1.5-1.2,1.8-1.2c0.8,0,1.2,0.4,1.2,1.3s-0.6,1.8-1.8,2.7c-1.9,1.5-4.8,2.3-8.6,2.3c-6.7,0-10.1-2.6-10.1-7.9v-8
					c0-1.8,0.7-3.4,2.1-4.7c1.8-1.8,4.6-2.6,8.2-2.6c6.6,0,9.8,3.3,9.8,9.8c0,1.6-0.6,2.4-1.8,2.4L147.8,537.1L147.8,537.1z
					 M147.8,534.2h14.3c0-4.3-2.4-6.5-7.3-6.5c-1.8,0-3.4,0.4-4.8,1.2c-1.5,1-2.2,2.2-2.2,3.6V534.2z"/>
				<path class="st6" d="M170.3,538.9v-12.5c0-6.6,3.4-9.8,10.4-9.8c2.8,0,5,0.6,6.8,1.8c2,1.5,3,3.6,3,6.2c0,1.2-0.5,1.8-1.5,1.8
					c-0.7,0-1.2-0.6-1.5-1.8c-0.2-1-0.6-1.9-1.1-2.8c-0.9-1.6-2.8-2.3-5.8-2.3c-2.6,0-4.4,0.6-5.5,1.9c-1,1.2-1.6,3-1.6,5.7v10.4
					c0,2.7,0.6,4.6,1.7,5.8c1.2,1.3,3,2,5.6,2c3.9,0,6.2-1.4,6.7-4.1c0.2-1,0.3-1.5,0.3-1.6c0.2-0.6,0.6-0.9,1.2-0.9
					c1,0,1.5,0.6,1.5,1.8c0,2.5-1,4.4-3.1,5.9c-1.7,1.1-3.8,1.7-6.6,1.7c-3.2,0-5.7-0.7-7.5-2.2
					C171.3,544.5,170.3,542.1,170.3,538.9"/>
				<path class="st6" d="M211.2,545.5c-1.4,1-2.6,1.8-3.4,2.1c-1,0.4-2.3,0.6-3.9,0.6c-2.4,0-4.4-0.5-5.9-1.5
					c-1.8-1.2-2.7-3-2.7-5.3s1-4.2,2.8-5.4c1.6-1.2,3.7-1.8,6.1-1.8c2,0,4.2,0.5,6.8,1.4v-3.5c0-1.7-0.8-2.9-2.4-3.6
					c-1.1-0.5-2.5-0.7-4.1-0.7c-3.8,0-5.8,1-6.2,3.1c-0.2,1-0.3,1.4-0.3,1.5c-0.2,0.5-0.6,0.7-1.2,0.7c-1,0-1.6-0.6-1.6-1.7
					c0-1.5,0.6-2.9,1.8-4.2c1.4-1.6,4.1-2.4,7.8-2.4c3,0,5.1,0.5,6.6,1.4c1.7,1.2,2.6,3.2,2.6,6v10.2c0,1.2,0.2,2,0.7,2.4
					c0.1,0.1,0.6,0.3,1.4,0.6c0.5,0.2,0.7,0.6,0.7,1.4c0,0.8-0.4,1.2-1.3,1.2c-0.2,0-0.6-0.1-1.3-0.3c-1.1-0.4-1.8-0.6-2-0.7
					C211.7,546.9,211.4,546.3,211.2,545.5 M211.1,542.5v-4.3c-2.2-0.7-4.4-1.1-6.3-1.1c-4.3,0-6.5,1.4-6.5,4.2
					c0,1.4,0.6,2.6,1.9,3.2c1,0.6,2.3,0.9,3.9,0.9c1.4,0,2.6-0.2,3.8-0.8C208.7,544.2,209.8,543.5,211.1,542.5"/>
				<path class="st6" d="M222.4,527.3c0.7-0.9,1.4-1.5,1.8-1.8c0.6-0.4,1.4-0.6,2.5-0.6c1.6,0,3,0.8,4.2,2.5c0.8-1,1.5-1.6,2.2-1.9
					c0.7-0.4,1.7-0.6,2.8-0.6c3.4,0,5.2,1.7,5.2,5v16.3c0,1.4-0.5,2-1.5,2s-1.4-0.6-1.4-2v-15.3c0-2.1-0.9-3.2-2.6-3.2
					c-1.3,0-2.6,0.8-3.7,2.3v16.2c0,1.4-0.5,2-1.4,2c-0.9,0-1.4-0.6-1.4-2v-15c0-2.3-1-3.4-2.8-3.4c-1.2,0-2.3,0.8-3.5,2.3v16.1
					c0,1.4-0.5,2-1.5,2s-1.4-0.6-1.4-2v-19.8c0-1,0.4-1.4,1.2-1.4c0.4,0,0.8,0.3,1,0.9C222.3,526.2,222.4,526.8,222.4,527.3"/>
				<path class="st6" d="M248.4,527.3c2.2-1.6,4.9-2.4,7.8-2.4c6.1,0,9.1,2.6,9.1,7.6v8.3c0,2.4-0.9,4.2-2.6,5.6
					c-1.5,1.2-3.6,1.8-6.2,1.8c-3.1,0-5.8-0.8-8.1-2.5v9.4c0,1.4-0.5,2.2-1.4,2.2c-0.9,0-1.4-0.7-1.4-2.2v-28.2
					c0-1.4,0.4-2.2,1.2-2.2c0.4,0,0.8,0.3,1.1,0.9C248,526.3,248.3,526.9,248.4,527.3 M248.4,542.5c2.1,1.8,4.6,2.8,7.6,2.8
					c1.8,0,3.3-0.3,4.4-1c1.4-0.8,2-2,2-3.5v-8.3c0-1.8-0.7-3-2.2-3.8c-1.1-0.6-2.6-0.9-4.5-0.9c-1.7,0-3,0.2-4.1,0.7
					c-1,0.4-2,1.3-3.3,2.6v11.4H248.4z"/>
				<path class="st6" d="M275.2,534.6c0-6.3,2.2-11.9,6.6-16.9c1.6-1.8,2.9-2.7,3.8-2.7c0.3,0,0.6,0.1,0.9,0.3
					c0.2,0.2,0.4,0.5,0.4,0.8c0,0.5-0.6,1.2-1.7,2.3c-4.6,4.4-6.9,9.8-6.9,16.3c0,7.2,2.4,13,7.1,17.5c1,0.9,1.4,1.6,1.4,2.2
					c0,0.3-0.2,0.6-0.4,0.9c-0.2,0.3-0.6,0.4-0.9,0.4c-1.1,0-2.6-1.3-4.6-3.8C277,547.2,275.2,541.4,275.2,534.6"/>
				<path class="st6" d="M335.8,536.2c0,6.3-2.2,11.9-6.6,16.9c-1.6,1.8-2.9,2.7-3.8,2.7c-0.3,0-0.6-0.1-0.9-0.3
					c-0.3-0.2-0.4-0.6-0.4-0.9c0-0.5,0.6-1.2,1.7-2.2c4.6-4.4,6.9-9.8,6.9-16.3c0-7.2-2.4-13-7.1-17.5c-1-0.9-1.4-1.6-1.4-2.2
					c0-0.3,0.2-0.6,0.4-0.9c0.2-0.2,0.6-0.4,0.9-0.4c1,0,2.6,1.3,4.6,3.8C333.8,523.7,335.8,529.5,335.8,536.2"/>
				<path class="st6" d="M319.4,554.4h-27.8c-1,0-1.8-0.8-1.8-1.8c0-1,0.8-1.8,1.8-1.8h27.8c1,0,1.8,0.8,1.8,1.8
					C321.1,553.7,320.4,554.4,319.4,554.4"/>
				<path class="st6" d="M299.6,518.5c0,0,2.3,1.6,2.3,4.5c0,5-6.8,10.5-6.8,15.7c0,5.6,4.3,9.2,8.4,10.3c0.6,0.1,0.8-0.5,0.1-0.7
					c-1.7-0.4-3.5-2.6-3.5-6c0-3.2,3.1-4.4,4.3-5.9c1.3-1.6,1-3.6,0.2-4.2c-0.7-0.6-0.2-1.4,1.1-0.4c1.3,0.9,2.4,2.7,2,4.3
					c-0.5,2.1,0.2,3.3,1.3,3.5c1.1,0.2,2.3-0.4,2.2-1.4c-0.1-1-0.7-2.1-0.4-2.1c0.8,0,2.4,1.9,2.4,5c0,3.1-2.5,5.2-3.3,6
					c-0.5,0.5,0.1,1.1,0.8,0.8c0.3-0.1,1-0.5,1.4-0.8c2-1.4,5.1-4.3,5.1-9.6c0-5.6-2.1-8.1-4.3-10.2c-2.2-2.1-2.7-1.6-2.1-0.5
					c1.8,3.1,0.7,4.2-0.6,4.2c-1.6,0-1.6-3.5-2.3-6.2c-1.3-6-6.8-7-7.8-7.1C299.1,517.6,298.4,517.9,299.6,518.5"/>
			</g>
			<g class="st5">
				<text transform="matrix(1 0 0 1 -50.6191 343.5841)" class="st15 st16 st17">Style Guide</text>
			</g>
			<g class="st5">
				<text transform="matrix(1 0 0 1 -50.6191 605.6519)" class="st15 st16 st17">puck logo graphic for promotional use.  </text>
			</g>
			<g class="st5">
				<defs>
					<rect id="SVGID_19_" x="-77" y="307.9" width="598.5" height="467.3"/>
				</defs>
				<clipPath id="SVGID_20_">
					<use xlink:href="#SVGID_19_"  style="overflow:visible;"/>
				</clipPath>
				<g class="st18">
					<g>
						<defs>
							<rect id="SVGID_21_" x="121.8" y="752.7" width="358.2" height="14.2"/>
						</defs>
						<clipPath id="SVGID_22_">
							<use xlink:href="#SVGID_21_"  style="overflow:visible;"/>
						</clipPath>
						<g style="clip-path:url(#SVGID_22_);">
							<text transform="matrix(1 0 0 1 121.8384 762.9825)"><tspan x="0" y="0" class="st16 st17">for social network  “profile pic” or avata</tspan><tspan x="206.1" y="0" class="st16 st17">r</tspan><tspan x="209.4" y="0" class="st16 st17">, use square corner version.</tspan></text>
						</g>
					</g>
				</g>
			</g>
			<g class="st5">
				<text transform="matrix(1 0 0 1 -49.8076 377.6261)" class="st15 st16 st17">minimum of 1 “o” space around logo. </text>
			</g>
			<g class="st5">
				<defs>
					<rect id="SVGID_23_" x="-77" y="307.9" width="598.5" height="467.3"/>
				</defs>
				<clipPath id="SVGID_24_">
					<use xlink:href="#SVGID_23_"  style="overflow:visible;"/>
				</clipPath>
				<g class="st19">
					<g>
						<defs>
							<rect id="SVGID_25_" x="194" y="332.1" width="65.4" height="14.2"/>
						</defs>
						<clipPath id="SVGID_26_">
							<use xlink:href="#SVGID_25_"  style="overflow:visible;"/>
						</clipPath>
						<g class="st20">
							<text transform="matrix(1 0 0 1 194.0264 342.3995)" class="st15 st16 st17">FCC green: </text>
						</g>
					</g>
				</g>
				<g class="st19">
					<g>
						<defs>
							<rect id="SVGID_27_" x="302.5" y="332.1" width="55.4" height="14.2"/>
						</defs>
						<clipPath id="SVGID_28_">
							<use xlink:href="#SVGID_27_"  style="overflow:visible;"/>
						</clipPath>
						<g class="st21">
							<text transform="matrix(1 0 0 1 302.4951 342.3995)" class="st22 st16 st17">D#006400</text>
						</g>
					</g>
				</g>
				<path class="st23" d="M-42,620.3H71c4.1,0,7.5,3.4,7.5,7.5v113c0,4.1-3.4,7.5-7.5,7.5H-42c-4.1,0-7.5-3.4-7.5-7.5v-113
					C-49.5,623.6-46.1,620.3-42,620.3"/>
				<path class="st24" d="M4.8,657.2c0,0,3.3,2.3,3.3,6.5c0,7.2-9.8,15.2-9.8,22.7c0,8.1,6.2,13.4,12.2,15c0.8,0.2,1.2-0.8,0.2-1
					c-2.4-0.6-5.1-3.8-5.1-8.8c0-4.6,4.4-6.3,6.2-8.6c1.8-2.3,1.4-5.2,0.3-6c-1.1-0.8-0.4-2,1.6-0.6c1.9,1.3,3.5,3.8,2.9,6.2
					c-0.7,3.1,0.2,4.8,1.8,5c1.6,0.2,3.4-0.6,3.2-2.1c-0.2-1.5-1.1-3-0.5-3c1.1,0,3.5,2.8,3.5,7.2c0,4.4-3.7,7.5-4.8,8.7
					c-0.7,0.7,0.2,1.6,1.1,1.2c0.5-0.2,1.4-0.8,2.1-1.2c2.9-2.1,7.4-6.2,7.4-14c0-8.1-3.1-11.7-6.2-14.7c-3.1-3-3.9-2.3-3-0.8
					c2.6,4.5,1,6-0.9,6c-2.2,0-2.4-5.1-3.3-9c-1.9-8.7-9.8-10.2-11.3-10.2C4.3,655.5,3,656.4,4.8,657.2"/>
				<path class="st24" d="M-33.5,683.1c0-9.9,3.4-18.8,10.3-26.6c2.5-2.9,4.5-4.3,5.9-4.3c0.5,0,1,0.2,1.4,0.6
					c0.4,0.4,0.6,0.8,0.6,1.3c0,0.7-0.9,1.9-2.6,3.6c-7.2,6.9-10.8,15.5-10.8,25.6c0,11.3,3.7,20.5,11.2,27.6
					c1.5,1.4,2.3,2.6,2.3,3.4c0,0.5-0.2,1-0.6,1.4c-0.4,0.4-0.9,0.6-1.4,0.6c-1.7,0-4.2-2-7.4-6.1
					C-30.6,702.9-33.5,693.8-33.5,683.1"/>
				<path class="st24" d="M59.6,685.6c0,9.9-3.4,18.8-10.3,26.6c-2.5,2.9-4.5,4.3-5.9,4.3c-0.5,0-1-0.2-1.4-0.6
					c-0.4-0.4-0.6-0.8-0.6-1.3c0-0.7,0.9-1.9,2.6-3.6c7.2-6.9,10.8-15.5,10.8-25.7c0-11.3-3.7-20.5-11.2-27.6
					c-1.5-1.4-2.3-2.6-2.3-3.4c0-0.5,0.2-1,0.6-1.4c0.4-0.4,0.9-0.6,1.4-0.6c1.7,0,4.1,2,7.3,6.1C56.7,665.8,59.6,674.9,59.6,685.6"
					/>
				<path class="st24" d="M36.6,711.6H-7.1c-1.4,0-2.6-1.2-2.6-2.6c0-1.4,1.2-2.6,2.6-2.6h43.7c1.4,0,2.6,1.2,2.6,2.6
					C39.2,710.4,38,711.6,36.6,711.6"/>
				<rect x="119" y="619" class="st23" width="131.9" height="132.3"/>
				<path class="st24" d="M175.2,657.8c0,0,3.3,2.3,3.3,6.5c0,7.2-9.8,15.2-9.8,22.7c0,8.1,6.2,13.4,12.1,15c0.8,0.2,1.2-0.8,0.2-1
					c-2.4-0.6-5.1-3.8-5.1-8.8c0-4.6,4.4-6.3,6.2-8.6c1.8-2.3,1.4-5.2,0.3-6s-0.4-2,1.6-0.6c1.9,1.3,3.5,3.8,2.9,6.2
					c-0.7,3.1,0.2,4.8,1.8,5c1.6,0.2,3.3-0.6,3.2-2.1s-1.1-3-0.5-3c1.1,0,3.5,2.8,3.5,7.2c0,4.4-3.6,7.5-4.8,8.7
					c-0.7,0.7,0.2,1.6,1.1,1.2c0.5-0.2,1.4-0.8,2-1.2c2.9-2.1,7.4-6.2,7.4-13.9c0-8.1-3.1-11.7-6.1-14.7c-3.1-3-3.9-2.3-3-0.8
					c2.6,4.5,1,6-0.9,6c-2.2,0-2.4-5.1-3.3-9c-1.9-8.7-9.8-10.2-11.3-10.2C174.8,656.2,173.4,657,175.2,657.8"/>
				<path class="st24" d="M137,683.7c0-9.9,3.4-18.8,10.3-26.6c2.5-2.9,4.5-4.3,5.9-4.3c0.5,0,1,0.2,1.4,0.6
					c0.4,0.4,0.6,0.8,0.6,1.3c0,0.7-0.9,1.9-2.6,3.6c-7.2,6.9-10.8,15.5-10.8,25.6c0,11.3,3.7,20.5,11.2,27.6
					c1.5,1.4,2.2,2.6,2.2,3.4c0,0.5-0.2,1-0.6,1.4c-0.4,0.4-0.9,0.6-1.4,0.6c-1.7,0-4.2-2-7.3-6.1C140,703.5,137,694.4,137,683.7"/>
				<path class="st24" d="M229.9,686.2c0,9.9-3.4,18.8-10.3,26.6c-2.5,2.9-4.5,4.3-5.9,4.3c-0.5,0-1-0.2-1.4-0.6
					c-0.4-0.4-0.6-0.8-0.6-1.3c0-0.7,0.9-1.9,2.6-3.6c7.2-6.9,10.8-15.5,10.8-25.7c0-11.3-3.7-20.5-11.2-27.6
					c-1.5-1.4-2.2-2.6-2.2-3.4c0-0.5,0.2-1,0.6-1.4c0.4-0.4,0.9-0.6,1.4-0.6c1.7,0,4.1,2,7.3,6.1C227,666.5,229.9,675.6,229.9,686.2
					"/>
				<path class="st24" d="M206.9,712.2h-43.6c-1.4,0-2.6-1.2-2.6-2.6c0-1.4,1.2-2.6,2.6-2.6h43.6c1.4,0,2.6,1.2,2.6,2.6
					C209.5,711,208.3,712.2,206.9,712.2"/>
				<rect x="417.7" y="640.3" class="st23" width="63.3" height="9.3"/>
				<rect x="417.7" y="655" class="st25" width="63.3" height="9.3"/>
				<rect x="417.7" y="669.6" class="st26" width="63.3" height="9.3"/>
				<rect x="417.7" y="684.3" class="st27" width="63.3" height="9.3"/>
				<rect x="417.7" y="698.9" class="st28" width="63.3" height="9.3"/>
			</g>
			<g class="st5">
				<text transform="matrix(1 0 0 1 265.291 648.7422)" class="st16 st17" style="fill:#006400;">@brand-primary: #006400;</text>
			</g>
			<g class="st5">
				<text transform="matrix(1 0 0 1 265.291 663.1426)" class="st16 st17">@brand-success: #            ;</text>
			</g>
			<g class="st5">
				<text transform="matrix(1 0 0 1 265.291 677.5421)" class="st16 st17">@brand-info: #</text>
			</g>
			<g class="st5">
				<text transform="matrix(1 0 0 1 344.8506 677.5421)" class="st16 st17" style="fill:#2B414F;">2b414f</text>
			</g>
			<g class="st5">
				<text transform="matrix(1 0 0 1 381.5586 677.5421)" class="st16 st17">;</text>
			</g>
			<g class="st5">
				<text transform="matrix(1 0 0 1 265.3027 691.9424)" class="st16 st17">@brand-warning: #</text>
			</g>
			<g class="st5">
				<text transform="matrix(1 0 0 1 367.543 691.9424)" class="st16 st17" style="fill:#F0AD4E;">f0ad4e</text>
			</g>
			<g class="st5">
				<text transform="matrix(1 0 0 1 404.251 691.9424)" class="st16 st17">;</text>
			</g>
			<g class="st5">
				<text transform="matrix(1 0 0 1 265.3154 706.3428)" class="st16 st17">@brand-danger: #</text>
			</g>
			<g class="st5">
				<text transform="matrix(1 0 0 1 362.8867 706.3428)" class="st16 st17" style="fill:#D9534F;">d9534f</text>
			</g>
			<g class="st5">
				<text transform="matrix(1 0 0 1 399.5947 706.3428)" class="st16 st17">;</text>
			</g>
			<g class="st5">
				<text transform="matrix(1 0 0 1 367.5547 664.2823)" class="st16 st17" style="fill:#67AD21;">457E86</text>
			</g>
		</g>
	</g>
</g>
<g id="FCC1">
	<g class="st0">
		<path id="Shape_2_" class="st29" d="M161.2,9.2c0,0,25.3,17,25.3,48.2c0,53.5-74.5,112.4-74.5,168c0,59.9,47,98.5,91.9,110.2
			c37.3,7.1,70.6-8.2,78.2-11.3c3.3-1.1,10.9-5.3,15.2-8.5C319,300.9,353,269.7,353,213c0-59.9-22.8-86.8-47-109.2
			c-23.9-22.3-29.7-17-22.8-5.3c19.5,33.3,7.6,45-6.5,45c-17.4,0-17.4-37.6-25.3-66.3C237.2,13.1,176.8,2.1,165.9,1
			C158-2.5,147.8,3.9,161.2,9.2L161.2,9.2z"/>
		<path id="Shape_4_" class="st30" d="M194,147.3c0,0,13.5,9.1,13.5,25.7c0,28.5-39.7,59.8-39.7,89.4c0,31.9,25,52.4,48.9,58.7
			c19.9,3.8,37.6-4.3,41.6-6c1.7-0.6,5.8-2.8,8.1-4.5c11.6-7.9,29.7-24.5,29.7-54.7c0-31.9-12.1-46.2-25-58.1
			c-12.7-11.9-15.8-9.1-12.1-2.8c10.4,17.7,4,24-3.5,24c-9.2,0-9.2-20-13.5-35.3c-7.5-34.1-39.7-40-45.4-40.6
			C192.2,141.1,186.8,144.5,194,147.3L194,147.3z"/>
	</g>
	<g>
		<path id="Shape_17_" class="st2" d="M161.2,9.2c0,0,25.3,17,25.3,48.2c0,53.5-74.5,112.4-74.5,168c0,33.7,14.9,60.6,35.9,79.8
			c16.3,15,160,2.9,165.7-2.3c19.2-17.6,39.5-46.2,39.5-89.9c0-59.9-22.8-86.8-47-109.2c-23.9-22.3-29.7-17-22.8-5.3
			c19.5,33.3,7.6,45-6.5,45c-17.4,0-17.4-37.6-25.3-66.3C237.2,13.1,176.8,2.1,165.9,1C158-2.5,147.8,3.9,161.2,9.2L161.2,9.2z"/>
		<path id="Shape_16_" class="st31" d="M194,147.3c0,0,13.5,9.1,13.5,25.7c0,28.5-39.7,59.8-39.7,89.4c0,31.9,25,52.4,48.9,58.7
			c19.9,3.8,37.6-4.3,41.6-6c1.7-0.6,5.8-2.8,8.1-4.5c11.6-7.9,29.7-24.5,29.7-54.7c0-31.9-12.1-46.2-25-58.1
			c-12.7-11.9-15.8-9.1-12.1-2.8c10.4,17.7,4,24-3.5,24c-9.2,0-9.2-20-13.5-35.3c-7.5-34.1-39.7-40-45.4-40.6
			C192.2,141.1,186.8,144.5,194,147.3L194,147.3z"/>
	</g>
	<g id="Group_1_">
		<g id="U1" transform="matrix(1.651955,0,0,1.6519564,-5.5791499,-27.957302)">
			<path id="path6_2_" class="st22" d="M150.4,103.5c6.1,4,11,9.6,16,14.9c-0.5,2.3-1.1,5.1-3.7,5.7c-6.7,1.7-13-3-19.6-1.4
				c-2,1.2-2.1,3.6-1.8,5.6c9.4,3,17.7,9.2,24.8,16c4.3,5.1,8.5,10.7,14.3,14.3c5.6,3.7,12.5,3.9,19,3.9c-0.5,8.5-2.5,16.8-2.7,25.2
				c3.2-0.1,6.1-1.5,9-2.4c3.1,6.2,4.8,10.7,7.2,17.2c2.6,9.2,1.3,4,3,11.8c-9.2,7.1-22.6,10.6-33.9,9.3
				c-13.1-2.1-26.2-5.2-39.2-8.5c-6.9-2.4-14.3-2.1-21.4-2.5c-15.7-0.6-32.1,1-46.4,8.3c-1.8,0.6-3.5,1.9-2.9,1.2l0.2-0.3
				c9.3-11.5,18.2-23.3,26-35.8c2.1-4.4,7.6-4.8,11.8-6c20.7-5.2,42.1,0.4,61.7,7.6c4.8,2,10,2,15.1,1.9c-8-3.8-16.3-7.3-23.1-13.1
				c-6.3-5.2-10-13-16.2-18.3c-6.8-6.8-16.2-11.4-26-10.4c5.4-11.7,12.5-22.5,17.4-34.5c2.3-5,8.5-2.5,12.9-3.2
				C151.8,107.6,151.3,105.4,150.4,103.5z"/>
			<path id="path8_2_" class="st32" d="M120.4,149.9c3.2-1.7,7-1.2,10.5-0.8c5.1,2.1,9.3,6.9,9.9,12.5c1,8.9-8.2,17.4-17,15.2
				c-6.4-1.3-11.8-7.5-11.4-14.2C112,157.2,116,152.7,120.4,149.9z"/>
		</g>
		<g id="g33_1_" transform="translate(107.580239, 265.729742)">
			<path id="path37_1_" class="st2" d="M231,59H19c-7.6,0-13.3-5.6-13.3-13S11.4,33,19,33h212c7.6,0,13.3,5.6,13.3,13
				C242.4,53.4,238.6,59,231,59L231,59z"/>
		</g>
		<path id="Shape_1_" class="st33" d="M178-20.2c0,0,18,12.1,18,34.3c0,38.1-53.1,80-53.1,119.6c0,42.6,33.5,70.1,65.4,78.5
			c4.6,0.8,6.2-3.8,0.8-5.3c-13.1-3-27.3-19.9-27.3-45.7c0-24.5,24.2-33.6,33.5-44.9c10-12.1,7.7-27.5,1.5-32
			c-6.2-4.5-1.5-10.6,8.5-3c10,6.8,18.8,20.7,15.5,32.8c-3.9,15.9,1.5,25.2,10,26.7c8.5,1.5,18-3,17-10.6c-1-7.6-5.4-15.9-3.1-15.9
			c6.2,0,18.8,14.4,18.8,38.1S264.1,192,257.9,198c-3.9,3.8,0.8,8.3,6.2,6.1c2.3-0.8,7.7-3.8,10.8-6.1
			c15.5-10.6,39.7-32.8,39.7-73.2c0-42.6-16.2-61.8-33.5-77.7c-17-15.9-21.1-12.1-16.2-3.8c13.9,23.7,5.4,32-4.6,32
			c-12.4,0-12.4-26.7-18-47.2c-10-45.7-53.1-53.5-60.8-54.2C175.7-28.6,168.5-24,178-20.2L178-20.2z"/>
		<path id="path29_1_" class="st2" d="M0.7,176.2c0-47.1,16.7-89.2,50.3-126.6c12.1-13.4,22.3-20.3,29.1-20.3c2.3,0,4.6,0.7,6.8,2.2
			c1.5,1.5,3,3.7,3,5.9c0,3.7-4.6,8.9-12.9,17.3C42,87.8,24.3,128.2,24.3,177c0,54,18.5,97.4,54.4,131.1
			c7.6,6.7,10.6,11.9,10.6,16.4c0,2.2-1.5,4.5-3,6.7c-1.5,1.5-4.6,3-6.8,3c-8.3,0-20-9.7-35.2-28.5C14.6,269.9,0.7,227.3,0.7,176.2
			L0.7,176.2L0.7,176.2z"/>
		<path id="path31_1_" class="st2" d="M464.1,188.1c0,47.1-16.7,89.2-50.3,126.6c-12.1,13.4-22.3,20.3-29.1,20.3
			c-2.3,0-4.6-0.7-6.8-2.2c-1.5-1.5-3-4.5-3-6.7c0-3.7,4.6-8.9,12.9-16.4c35.2-32.9,52.9-73.3,52.9-122.1c0-54-18.5-97.4-54.4-131.1
			c-7.6-6.7-10.6-11.9-10.6-16.4c0-2.2,1.5-4.5,3-6.7c1.5-1.5,4.6-3,6.8-3c7.6,0,20,9.7,35.2,28.5
			C448.7,94.7,464.1,137.4,464.1,188.1L464.1,188.1L464.1,188.1z"/>
	</g>
</g>
</svg>
